<?xml version="1.0" encoding="iso-8859-1"?>
<!-- Generator: Adobe Illustrator 19.0.0, SVG Export Plug-In . SVG Version: 6.00 Build 0)  -->
<svg xmlns="http://www.w3.org/2000/svg" xmlns:xlink="http://www.w3.org/1999/xlink" version="1.1" id="Layer_1" x="0px" y="0px" viewBox="0 0 512 512" style="enable-background:new 0 0 512 512;" xml:space="preserve" width="512px" height="512px">
<g>
	<g>
		<g>
			<path d="M486.4,337.067c-3.046,0-5.965,0.529-8.678,1.519c-1.382-12.834-12.271-22.852-25.455-22.852     c-2.995,0-5.862,0.521-8.533,1.459v-44.126c0-14.114-11.486-25.6-25.6-25.6c-11.785,0-21.734,8.004-24.704,18.867     c-2.918-1.161-6.101-1.801-9.429-1.801c-14.114,0-25.6,11.486-25.6,25.6v67.277c-12.151-10.581-29.867-14.976-44.006-9.643     c-2.79,1.058-5.137,2.509-6.656,3.524c-8.081,5.35-8.747,12.083-8.943,14.157c-0.777,4.403,0.862,6.221,6.946,13.005     c7.706,8.593,23.757,26.487,33.579,44.151c0.503,0.811,11.691,18.91,24.337,32.99v9.515c0,26.291,20.164,46.891,45.901,46.891     h42.709C497.4,512,512,457.387,512,430.933v-68.267C512,348.553,500.514,337.067,486.4,337.067z M494.933,430.933     c0,12.698-7.595,64-42.667,64h-42.709c-14.635,0-26.3-10.778-28.399-25.216c0.41,0.316,0.819,0.597,1.229,0.939     c1.596,1.314,3.516,1.946,5.419,1.946c2.466,0,4.907-1.058,6.596-3.106c2.995-3.644,2.475-9.02-1.161-12.015     c-2.611-2.142-5.146-3.891-7.654-5.615c-2.517-1.724-4.89-3.405-7.168-5.41c-0.017-0.017-0.017-0.034-0.034-0.06     c-12.297-12.979-24.329-32.41-24.337-32.41c-10.564-19.012-27.477-37.871-35.61-46.933c-0.478-0.529-0.93-1.032-1.34-1.493     c0.026-0.017,0.043-0.034,0.068-0.043c1.314-0.87,2.338-1.434,3.243-1.775c9.361-3.516,25.498,1.417,32.324,13.184l6.886,11.469     c0.009,0.009,0.017,0.026,0.034,0.034c0.008,0.017,0,0.034,0.008,0.043l5.257,8.533c1.613,2.62,4.412,4.062,7.279,4.062     c1.519,0,3.072-0.41,4.463-1.263c4.011-2.475,5.265-7.731,2.79-11.742l-3.985-6.477v-91.452c0-4.702,3.831-8.533,8.533-8.533     c4.702,0,8.533,3.831,8.533,8.533v51.2v51.2c0,4.71,3.823,8.533,8.533,8.533s8.533-3.823,8.533-8.533v-51.2v-68.267     c0-4.702,3.831-8.533,8.533-8.533c4.702,0,8.533,3.831,8.533,8.533v65.425v2.842v46.933c0,4.71,3.823,8.533,8.533,8.533     c4.71,0,8.533-3.823,8.533-8.533v-46.933c0-4.702,3.831-8.533,8.533-8.533c4.702,0,8.533,3.831,8.533,8.533v21.333     c0,4.71,3.823,8.533,8.533,8.533s8.533-3.823,8.533-8.533c0-4.702,3.831-8.533,8.533-8.533c4.702,0,8.533,3.831,8.533,8.533     V430.933z" fill="#FFFFFF"/>
			<path d="M256,221.867c-18.825,0-34.133,15.309-34.133,34.133c0,18.825,15.309,34.133,34.133,34.133s34.133-15.309,34.133-34.133     C290.133,237.175,274.825,221.867,256,221.867z" fill="#FFFFFF"/>
			<path d="M346.59,461.935c-11.358-13.653-20.642-28.51-21.786-30.345c-9.267-16.648-24.439-33.562-31.727-41.694     c-6.733-7.501-13.056-14.549-11.204-26.684c1.493-13.577,9.728-21.7,16.444-26.155c3.413-2.27,6.707-3.994,10.044-5.257     c5.939-2.236,12.322-3.371,18.987-3.371c4.676,0,9.37,0.563,13.986,1.638v-39.936c0-23.526,19.14-42.667,42.667-42.667h0.017     c7.893-10.487,20.429-17.067,34.116-17.067c23.526,0,42.667,19.14,42.667,42.667v26.453     c12.151,2.458,22.485,10.061,28.501,20.574c4.821,0.324,9.353,1.587,13.602,3.388C508.911,301.542,512,278.946,512,256     C512,114.842,397.158,0,256,0S0,114.842,0,256s114.842,256,256,256c33.212,0,66.159-6.596,96.734-19.055     c-3.908-8.38-6.144-17.783-6.144-27.836V461.935z M76.8,264.533c-4.71,0-8.533-3.823-8.533-8.533     c0-103.518,84.215-187.733,187.733-187.733c4.71,0,8.533,3.823,8.533,8.533s-3.823,8.533-8.533,8.533     c-94.106,0-170.667,76.561-170.667,170.667C85.333,260.71,81.51,264.533,76.8,264.533z M136.533,256     c0,4.71-3.823,8.533-8.533,8.533c-4.71,0-8.533-3.823-8.533-8.533c0-75.281,61.252-136.533,136.533-136.533     c4.71,0,8.533,3.823,8.533,8.533c0,4.71-3.823,8.533-8.533,8.533C190.123,136.533,136.533,190.123,136.533,256z M204.8,256     c0-28.237,22.963-51.2,51.2-51.2c28.237,0,51.2,22.963,51.2,51.2s-22.963,51.2-51.2,51.2C227.763,307.2,204.8,284.237,204.8,256z     " fill="#FFFFFF"/>
		</g>
	</g>
</g>
<g>
</g>
<g>
</g>
<g>
</g>
<g>
</g>
<g>
</g>
<g>
</g>
<g>
</g>
<g>
</g>
<g>
</g>
<g>
</g>
<g>
</g>
<g>
</g>
<g>
</g>
<g>
</g>
<g>
</g>
</svg>
